<?xml version="1.0" encoding="UTF-8" standalone="no"?>
<!-- Generator: Adobe Illustrator 21.1.0, SVG Export Plug-In . SVG Version: 6.00 Build 0)  -->

<svg
   xmlns:dc="http://purl.org/dc/elements/1.1/"
   xmlns:cc="http://creativecommons.org/ns#"
   xmlns:rdf="http://www.w3.org/1999/02/22-rdf-syntax-ns#"
   xmlns:svg="http://www.w3.org/2000/svg"
   xmlns="http://www.w3.org/2000/svg"
   xmlns:sodipodi="http://sodipodi.sourceforge.net/DTD/sodipodi-0.dtd"
   xmlns:inkscape="http://www.inkscape.org/namespaces/inkscape"
   version="1.1"
   x="0px"
   y="0px"
   viewBox="0 0 1200 1200"
   style="enable-background:new 0 0 1200 1200;"
   xml:space="preserve"
   id="svg25"
   sodipodi:docname="chicken_v0.svg"
   inkscape:version="0.92.1 r15371"><metadata
     id="metadata31"><rdf:RDF><cc:Work
         rdf:about=""><dc:format>image/svg+xml</dc:format><dc:type
           rdf:resource="http://purl.org/dc/dcmitype/StillImage" /><dc:title></dc:title></cc:Work></rdf:RDF></metadata><defs
     id="defs29" /><sodipodi:namedview
     pagecolor="#ffffff"
     bordercolor="#666666"
     borderopacity="1"
     objecttolerance="10"
     gridtolerance="10"
     guidetolerance="10"
     inkscape:pageopacity="0"
     inkscape:pageshadow="2"
     inkscape:window-width="775"
     inkscape:window-height="480"
     id="namedview27"
     showgrid="false"
     inkscape:zoom="0.19666667"
     inkscape:cx="600"
     inkscape:cy="600"
     inkscape:window-x="-9"
     inkscape:window-y="-9"
     inkscape:window-maximized="1"
     inkscape:current-layer="svg25" /><style
     type="text/css"
     id="style2">
	.st0{fill:#FF8B00;}
	.st1{fill:#D66C03;}
	.st2{fill:#F49939;}
	.st3{fill:#E2BA13;}
	.st4{fill:#FFD42A;}
	.st5{fill:#333333;}
</style><g
     id="Warstwa_2"><g
       id="layer11"
       transform="translate(0,-164.70832)"
       inkscape:groupmode="layer"
       inkscape:label="dziĂłb"><path
         id="rect5302"
         inkscape:connector-curvature="0"
         sodipodi:nodetypes="ccccc"
         class="st0"
         d="M527.8,491.1    c136.2-133.5,97.1-144.5,240.9,5.6c10.3,14.3-10.1,44-18,47.4l-205.1,4.3C534.6,546.3,498.3,531.7,527.8,491.1L527.8,491.1z" /><path
         id="rect5405"
         inkscape:connector-curvature="0"
         sodipodi:nodetypes="ccccc"
         class="st1"
         d="M648.8,387.7    c30.8-1,79.9,72.7,119.8,109c12.7,19.5-2.8,34.2-8.9,43.2l-110.2-18.6C652.5,487.4,661.7,475.4,648.8,387.7z" /></g></g><g
     id="Layer_1"><g
       id="g18"><g
         id="g16"><path
           class="st2"
           d="M323.1,749.4c-5.9,9.8-14.8,20.4-28.5,22.6c-15.1,2.4-28-7.5-30.1-18.6c-2.1-11.1,3.5-22.7,9-33.8     c-4.4,7.9-13.2,17.2-23.8,15.8c-11-1.4-12.1-12.7-9.6-21.3c4.6-15.3,13.7-30.2,26.5-43.3c-0.2,7.2-15.3,10.4-22,5.8     c-6.7-4.6-6.9-12.7-5.9-20c6.2-46,43.1-93.1,99.3-115.7c27.4-11,24.5,55.4,24.1,68.9C360.8,654,348.2,707.5,323.1,749.4z"
           id="path8" /><path
           class="st2"
           d="M940.8,762.3c5,8.9,12.3,18.3,22.6,18.7c11.3,0.5,20.1-11.1,20.9-22.4c0.8-11.3-4.1-22.1-8.9-32.3     c3.8,7.3,10.9,15.4,18.6,12.6c8-2.8,8.1-14.2,5.6-22.3c-4.4-14.6-12.2-28.2-22.5-39.4c0.7,7.1,12,8.3,16.6,2.9     c4.6-5.5,4.2-13.5,3-20.6c-7.7-44.8-38.2-86.7-81.1-101.8c-20.9-7.3-14.2,58-13,71.4C906.4,672.7,919.4,724,940.8,762.3z"
           id="path10" /><path
           class="st3"
           d="M738.1,999.5c-4.1,11.2-14,20.1-25.6,22.9c-4.6,1.1-9.6,1.3-13.9-0.8c-3.1-1.5-5.5-4-7.7-6.6     c-6.4-7.8-11.1-17.1-13.5-26.9c-3.1,13.8-14.2,24.5-26,32.2c-10.6,6.9-24.1,12.3-35.6,7.2c-2.9-1.3-5.7-3.3-7.1-6.2     c-1.1-2.3-1.3-5-1.3-7.5c0.2-8.9,3.6-17.8,9.4-24.6c-12,13.9-31.4,20.9-49.5,17.8c-7.9-1.4-16.4-5.4-18.9-13.1     c-1.8-5.6,0.1-11.7,2.8-16.9c8.8-16.7,26-27.6,43.8-34c19-6.7,39.3-9.5,58.9-14.2c13.2-3.2,27.5-7.9,39.9-0.1     c10.6,6.6,19.2,18.3,28.8,26.4C736,966.3,744.5,981.8,738.1,999.5z"
           id="path12" /><path
           class="st4"
           d="M317.5,705.3c46.6,140.3,177.1,265.1,338.3,254.9c21-1.3,34.8-3.2,51.7-6.2     c146.2-25.7,231.8-182.2,250.6-318.5c2.1-16.9,3.1-33.8,2.9-50.5c-0.4-33.4-5.6-66-16.4-96.1c-6.2-17.2-14.2-33.6-24.3-48.9     c-71.7-107.3-206.6-120.5-327.7-109.2c-17.3,1.6-34.3,3.7-51,6c-40.9,4.4-79.3,18.9-113.2,40.5c-16.9,10.8-32.7,23.4-47.1,37.4     c-59.1,55.3-92.4,135.6-82.8,213.5c1.9,15.6,5.6,31.1,11.1,46.3C311.6,684.7,314.2,695,317.5,705.3z"
           id="path14" /></g></g><ellipse
       transform="matrix(0.198 -0.9802 0.9802 0.198 265.8237 1075.2625)"
       class="st5"
       cx="790"
       cy="375.2"
       rx="23.1"
       ry="44"
       id="ellipse20" /><ellipse
       transform="matrix(0.993 -0.1183 0.1183 0.993 -40.9413 60.8702)"
       class="st5"
       cx="492.1"
       cy="375.2"
       rx="44"
       ry="23.1"
       id="ellipse22" /></g></svg>