<?xml version="1.0" encoding="UTF-8" standalone="no"?>
<!-- Created with Inkscape (http://www.inkscape.org/) -->

<svg
   xmlns:dc="http://purl.org/dc/elements/1.1/"
   xmlns:cc="http://creativecommons.org/ns#"
   xmlns:rdf="http://www.w3.org/1999/02/22-rdf-syntax-ns#"
   xmlns:svg="http://www.w3.org/2000/svg"
   xmlns="http://www.w3.org/2000/svg"
   xmlns:sodipodi="http://sodipodi.sourceforge.net/DTD/sodipodi-0.dtd"
   xmlns:inkscape="http://www.inkscape.org/namespaces/inkscape"
   width="200"
   height="200"
   viewBox="0 0 200 200"
   id="svg2"
   version="1.1"
   inkscape:version="0.91 r13725"
   sodipodi:docname="fireball.svg">
  <defs
     id="defs4" />
  <sodipodi:namedview
     id="base"
     pagecolor="#ffffff"
     bordercolor="#666666"
     borderopacity="1.0"
     inkscape:pageopacity="0.0"
     inkscape:pageshadow="2"
     inkscape:zoom="2.8"
     inkscape:cx="109.23645"
     inkscape:cy="100.55106"
     inkscape:document-units="px"
     inkscape:current-layer="layer1"
     showgrid="false"
     units="px"
     inkscape:window-width="1366"
     inkscape:window-height="714"
     inkscape:window-x="1280"
     inkscape:window-y="256"
     inkscape:window-maximized="1" />
  <metadata
     id="metadata7">
    <rdf:RDF>
      <cc:Work
         rdf:about="">
        <dc:format>image/svg+xml</dc:format>
        <dc:type
           rdf:resource="http://purl.org/dc/dcmitype/StillImage" />
        <dc:title></dc:title>
      </cc:Work>
    </rdf:RDF>
  </metadata>
  <g
     inkscape:label="Layer 1"
     inkscape:groupmode="layer"
     id="layer1"
     transform="translate(0,-852.36216)">
    <path
       style="fill:#ffffff;fill-opacity:1;stroke:none;stroke-width:0;stroke-miterlimit:4;stroke-dasharray:none"
       d="m 84.96927,857.20741 c -39.114137,1.57969 -68.291109,37.77855 -76.4045518,74.71691 -8.08359179,25.79277 -1.1891231,56.60859 20.8152838,72.97488 22.157286,19.821 49.959814,33.4855 78.756968,39.0308 31.40852,0.039 53.06754,-28.8757 65.9142,-55.07751 13.90831,-25.60383 24.20702,-59.78662 6.75325,-86.29705 -20.08241,-32.44491 -59.88694,-45.86923 -95.83515,-45.34803 z"
       id="path4222-6"
       inkscape:connector-curvature="0" />
    <path
       style="fill:#aa0000;fill-opacity:1;stroke:none;stroke-width:0;stroke-miterlimit:4;stroke-dasharray:none"
       d="m 180.17072,950.07182 c -8.37378,32.76297 -40.89266,102.50848 -83.677589,85.86188 -40.217316,-15.6476 -90.0168661,-43.00329 -83.677599,-85.86188 7.031053,-47.53566 33.275446,-90.26613 83.677599,-85.86187 52.260179,4.56661 95.371719,40.10779 83.677589,85.86187 z"
       id="path4222"
       inkscape:connector-curvature="0"
       sodipodi:nodetypes="sssss" />
    <path
       style="fill:#ff6600;fill-opacity:1;stroke:none;stroke-width:0;stroke-miterlimit:4;stroke-dasharray:none"
       d="m 154.37479,926.14208 c 0,10.36027 -18.96421,27.39556 -16.11348,18.75894 5.71347,-17.30947 -9.49983,-15.83821 -16.11349,-18.75894 -9.64107,-4.2577 7.21427,-27.14545 16.11349,-18.75896 6.54964,6.17229 16.11348,8.39868 16.11348,18.75896 z"
       id="path4225"
       inkscape:connector-curvature="0"
       sodipodi:nodetypes="sssss" />
  </g>
</svg>
