<?xml version="1.0" encoding="UTF-8" standalone="no"?>
<!-- Created with Inkscape (http://www.inkscape.org/) -->

<svg
   xmlns:dc="http://purl.org/dc/elements/1.1/"
   xmlns:cc="http://creativecommons.org/ns#"
   xmlns:rdf="http://www.w3.org/1999/02/22-rdf-syntax-ns#"
   xmlns:svg="http://www.w3.org/2000/svg"
   xmlns="http://www.w3.org/2000/svg"
   xmlns:sodipodi="http://sodipodi.sourceforge.net/DTD/sodipodi-0.dtd"
   xmlns:inkscape="http://www.inkscape.org/namespaces/inkscape"
   width="200"
   height="200"
   viewBox="0 0 200 200"
   id="svg4218"
   version="1.1"
   inkscape:version="0.91 r13725"
   sodipodi:docname="wave-icon.svg">
  <defs
     id="defs4220" />
  <sodipodi:namedview
     id="base"
     pagecolor="#ffffff"
     bordercolor="#666666"
     borderopacity="1.0"
     inkscape:pageopacity="0.0"
     inkscape:pageshadow="2"
     inkscape:zoom="2.8"
     inkscape:cx="42.169369"
     inkscape:cy="77.193601"
     inkscape:document-units="px"
     inkscape:current-layer="layer1"
     showgrid="false"
     units="px"
     inkscape:window-width="1366"
     inkscape:window-height="714"
     inkscape:window-x="1280"
     inkscape:window-y="256"
     inkscape:window-maximized="1" />
  <metadata
     id="metadata4223">
    <rdf:RDF>
      <cc:Work
         rdf:about="">
        <dc:format>image/svg+xml</dc:format>
        <dc:type
           rdf:resource="http://purl.org/dc/dcmitype/StillImage" />
        <dc:title />
      </cc:Work>
    </rdf:RDF>
  </metadata>
  <g
     inkscape:label="Layer 1"
     inkscape:groupmode="layer"
     id="layer1"
     transform="translate(0,-852.36216)">
    <path
       style="opacity:1;fill:#ffffff;fill-opacity:1;stroke:none;stroke-width:0;stroke-miterlimit:4;stroke-dasharray:none"
       d="m 97.695034,889.99721 c -33.886629,0.46757 -68.558099,17.81615 -85.220703,48.04101 -3.757407,6.08536 -8.6463439,14.49048 -4.4628912,21.38086 6.2636282,6.61135 16.0065912,1.23111 22.9492192,-1.02344 32.325642,-11.67882 67.880092,-20.70507 101.568361,-11 17.34152,3.82639 33.82437,11.10526 51.25781,14.41016 6.91198,0.0149 11.91005,-7.88598 8.52539,-14.07031 -5.70158,-23.17247 -25.13341,-40.36143 -46.79688,-48.71875 -15.10611,-6.22165 -31.50033,-9.18635 -47.820306,-9.01953 z m 1.154297,6.32812 c 37.115029,-0.24152 70.992599,18.57586 80.812499,37.98242 20.83823,41.18156 -4.2888,12.64803 -67.83008,3.61719 -73.131691,-5.16161 -125.770534,50.88589 -87.042966,-8.41992 21.756694,-23.92621 48.666051,-33.01444 74.060547,-33.17969 z"
       id="rect4187-7"
       inkscape:connector-curvature="0" />
    <path
       style="opacity:0.4;fill:#ffffff;fill-opacity:1;stroke:none;stroke-width:0;stroke-miterlimit:4;stroke-dasharray:none"
       d="m 24.447057,929.51383 c 53.554937,-58.89527 138.335043,-27.8812 154.873813,4.8035 20.83823,41.1816 -4.28918,12.6478 -67.83046,3.6169 -73.131692,-5.1616 -125.770921,50.88543 -87.043353,-8.4204 z"
       id="rect4187-5"
       inkscape:connector-curvature="0"
       sodipodi:nodetypes="cscc" />
    <path
       inkscape:connector-curvature="0"
       style="opacity:1;fill:#ffffff;fill-opacity:1;stroke:none;stroke-width:0;stroke-miterlimit:4;stroke-dasharray:none"
       d="m 95.320664,957.48951 c -22.495665,0.34338 -45.512346,13.08421 -56.573827,35.28145 -2.49436,4.469 -5.739881,10.64174 -2.962693,15.70214 4.158116,4.8554 10.625988,0.9041 15.234858,-0.7516 21.459401,-8.57694 45.06225,-15.20584 67.426228,-8.07844 11.5122,2.81014 22.45434,8.15574 34.02755,10.58284 4.58852,0.011 7.90649,-5.7914 5.65959,-10.33324 -3.785,-17.01791 -16.68484,-29.64157 -31.06615,-35.77919 -10.0282,-4.56919 -20.91152,-6.74647 -31.745556,-6.62396 z m 0.766285,4.64738 c 24.638851,-0.17736 47.128501,13.64215 53.647451,27.89437 13.83347,30.24384 -2.84713,9.2887 -45.02906,2.6565 -48.548531,-3.7907 -83.49287,37.37074 -57.783545,-6.1836 14.443202,-17.57149 32.306994,-24.24591 49.165154,-24.36727 z"
       id="rect4187-7-3" />
    <path
       style="opacity:0.4;fill:#ffffff;fill-opacity:1;stroke:none;stroke-width:0;stroke-miterlimit:4;stroke-dasharray:none"
       d="m 46.694943,986.51066 c 35.552481,-43.25285 91.833827,-20.47608 102.813107,3.5276 13.83347,30.24394 -2.84738,9.2886 -45.02931,2.6563 -48.54853,-3.7906 -83.493125,37.37034 -57.783797,-6.1839 z"
       id="rect4187-5-5"
       inkscape:connector-curvature="0"
       sodipodi:nodetypes="cscc" />
  </g>
</svg>
